<svg width="512" height="512" viewBox="0 0 512 512" fill="none" xmlns="http://www.w3.org/2000/svg">
<path d="M43.5619 449.344C42.3161 450.175 41.3285 451.339 40.7114 452.703C40.0943 454.067 39.8725 455.578 40.0713 457.062C40.2701 458.546 40.8815 459.945 41.8359 461.098C42.7903 462.252 44.0494 463.115 45.47 463.589L93.47 479.589C95.2967 480.198 97.2819 480.127 99.0609 479.391C100.84 478.654 102.294 477.3 103.155 475.578L129.906 422.078L188.1 486.731C190.726 489.646 193.936 491.977 197.52 493.574C201.104 495.17 204.983 495.997 208.907 496H336C336.86 496 356.7 489.532 356.7 489.532C362.247 493.752 369.03 496.025 376 496H392C400.487 496 408.626 492.628 414.627 486.627C420.629 480.626 424 472.487 424 464C424 455.513 420.629 447.374 414.627 441.372C408.626 435.371 400.487 432 392 432H376C375.643 432 375.289 432.016 374.934 432.027L375.907 425.221L383.47 379.844L405.657 357.657C406.845 356.47 407.628 354.939 407.898 353.282C408.167 351.624 407.908 349.924 407.157 348.422L399.157 332.422C398.343 330.794 396.998 329.493 395.345 328.732C393.691 327.972 391.828 327.798 390.062 328.239L382.641 330.094L383.441 324.52L404.299 309.62C404.466 309.856 404.619 310.102 404.792 310.334L414.369 323.151C416.876 326.526 420.027 329.37 423.641 331.518C427.255 333.666 431.259 335.077 435.421 335.667C436.961 335.891 438.515 336.004 440.071 336.004C446.003 335.99 451.815 334.328 456.858 331.203C461.9 328.078 465.975 323.613 468.627 318.306C471.279 313 472.404 307.06 471.876 301.151C471.348 295.242 469.189 289.596 465.638 284.844L456.062 272.026C452.542 267.344 447.81 263.713 442.377 261.526L447.429 221.103C447.729 218.757 447.561 216.375 446.934 214.095C446.307 211.815 445.234 209.682 443.777 207.819C443.777 207.819 389.684 138.376 389.626 138.319C389.491 138.185 301.717 97.8099 301.717 97.8099L262.993 28.1149C262.472 27.1769 261.767 26.3534 260.922 25.6932C260.076 25.0331 259.106 24.5499 258.069 24.2723C257.033 23.9947 255.951 23.9285 254.888 24.0776C253.826 24.2266 252.804 24.5879 251.884 25.1399L211.884 49.1399C210.727 49.8341 209.764 50.8096 209.086 51.9756C208.407 53.1417 208.034 54.4605 208.002 55.8093C207.97 57.1581 208.28 58.4931 208.902 59.6902C209.524 60.8872 210.439 61.9074 211.562 62.6559L232.737 76.7719L239.921 116.285L172.3 73.2499C170.928 72.377 169.323 71.9429 167.698 72.0054C166.073 72.068 164.506 72.6242 163.205 73.5999L131.205 97.5999C130.037 98.4759 129.131 99.6547 128.585 101.009C128.04 102.363 127.875 103.84 128.109 105.281C128.342 106.722 128.966 108.072 129.912 109.183C130.858 110.295 132.09 111.127 133.475 111.589L155.043 118.779L211.543 196.469C214.145 200.035 217.552 202.938 221.485 204.941C225.419 206.945 229.77 207.993 234.185 208H308.253L342.715 249.355L320.647 300.849C320.22 301.845 320 302.917 320 304V351.015L305.754 408H283.816L308.092 347.31C309.559 343.638 310.233 339.698 310.068 335.747C309.904 331.797 308.906 327.926 307.139 324.389L272 254.111V232C272 230.693 271.68 229.405 271.067 228.25C270.454 227.095 269.568 226.108 268.485 225.375C267.403 224.642 266.157 224.186 264.857 224.046C263.557 223.906 262.243 224.086 261.029 224.572L221.029 240.572C219.293 241.266 217.855 242.546 216.964 244.19C216.074 245.835 215.788 247.739 216.155 249.572L231.532 326.457L198.076 379.986L169.687 356.329C163.131 350.865 155.356 347.059 147.019 345.233C138.682 343.407 130.027 343.614 121.787 345.838C113.547 348.061 105.964 352.235 99.6768 358.007C93.3899 363.779 88.5846 370.979 85.667 379L65.3779 434.8L43.5619 449.344ZM395.578 471.155C396.907 470.49 398.024 469.469 398.805 468.205C399.586 466.942 400 465.486 400 464V450.165C403.05 451.924 405.435 454.64 406.783 457.893C408.131 461.146 408.368 464.753 407.456 468.154C406.544 471.555 404.534 474.56 401.74 476.702C398.945 478.844 395.521 480.003 392 480H377.888L395.578 471.155ZM384 448V459.056L370.079 466.016L372.601 448.364C373.708 448.125 384 448 384 448ZM387.714 345.317L390.266 350.417L378.192 362.5L371.615 349.347L387.714 345.317ZM421.764 306.325L417.604 300.758C417.504 300.617 417.404 300.47 417.304 300.327L427.068 293.353L428.222 297.374L421.764 306.325ZM444.675 296.697L440.008 280.436L440.244 278.55C441.374 279.43 442.381 280.457 443.239 281.604L452.816 294.422C454.976 297.306 456.099 300.835 456.003 304.436C455.906 308.038 454.596 311.502 452.285 314.266C449.974 317.031 446.797 318.934 443.27 319.667C439.742 320.4 436.07 319.92 432.849 318.305L443.472 303.585C444.18 302.603 444.657 301.473 444.865 300.281C445.073 299.088 445.008 297.864 444.675 296.7V296.697ZM289.007 107.885C289.838 109.383 291.129 110.575 292.689 111.285L341.14 133.308L258.556 128.146L258.311 127.99L250.941 87.4539L273.481 79.9409L289.007 107.885ZM230.956 56.3559L253.023 43.1149L265.575 65.7089L248.05 71.5509L247.871 70.5689C247.679 69.5121 247.276 68.5049 246.686 67.6072C246.096 66.7095 245.332 65.9398 244.438 65.3439L230.956 56.3559ZM172.956 116.208L166.474 107.294C165.493 105.946 164.116 104.938 162.534 104.411L153.019 101.239L168.374 89.7199L181.894 98.3199L172.956 116.208ZM334.8 214.866L318.143 194.878C317.392 193.977 316.453 193.253 315.392 192.756C314.33 192.258 313.172 192 312 192H234.185C232.293 191.997 230.427 191.548 228.741 190.69C227.055 189.831 225.594 188.587 224.479 187.058L183.552 130.783L195.464 106.96L251.705 142.75C252.847 143.476 254.154 143.901 255.505 143.984L379.905 151.759L394.038 169.93L334.8 214.866ZM336 305.642L359.353 251.151C359.934 249.795 360.129 248.304 359.916 246.844C359.703 245.384 359.09 244.011 358.146 242.878L345.057 227.171L403.857 182.561L431.143 217.643C431.304 217.85 431.423 218.087 431.493 218.34C431.562 218.593 431.581 218.857 431.548 219.118L424.497 275.528L371.35 313.49C370.47 314.119 369.726 314.92 369.164 315.844C368.602 316.769 368.234 317.798 368.081 318.869L365.881 334.284L336 341.754V305.642ZM304 424V448C304 450.122 304.843 452.156 306.343 453.657C307.843 455.157 309.878 456 312 456C314.122 456 316.157 455.157 317.657 453.657C319.157 452.156 320 450.122 320 448V416.985L334.6 358.6L355.718 353.321L367.684 377.254L360.112 422.688C360.102 422.749 360.092 422.81 360.084 422.872L352.784 473.972L334.7 480H272.06L279.06 424H304ZM256 243.816V256C256 257.242 256.289 258.467 256.845 259.578L259.496 264.878L236.676 270.578L233.15 252.95L256 243.816ZM100.7 384.472C102.739 378.864 106.098 373.83 110.493 369.794C114.888 365.758 120.19 362.839 125.95 361.284C131.711 359.73 137.762 359.584 143.59 360.86C149.419 362.136 154.855 364.797 159.439 368.617L194.873 398.146C195.751 398.877 196.775 399.412 197.876 399.715C198.978 400.017 200.131 400.08 201.259 399.9C202.387 399.719 203.464 399.299 204.416 398.668C205.368 398.037 206.174 397.209 206.779 396.24L246.779 332.24C247.86 330.51 248.24 328.432 247.84 326.431L239.812 286.292L265.935 279.761C266.227 279.687 266.514 279.596 266.796 279.49L292.823 331.544C293.58 333.06 294.008 334.719 294.078 336.412C294.149 338.105 293.86 339.794 293.232 341.368C293.232 341.368 264.075 414.888 264.065 414.968C264.065 414.982 256.057 479.011 256.057 479.011C256.018 479.34 255.999 479.671 256.001 480.003H208.901C207.219 480.002 205.556 479.648 204.02 478.963C202.484 478.279 201.108 477.28 199.982 476.031L133.94 402.651C133.068 401.683 131.973 400.942 130.75 400.493C129.527 400.045 128.212 399.901 126.921 400.076C125.63 400.251 124.401 400.739 123.341 401.497C122.282 402.254 121.423 403.26 120.84 404.425L111.265 423.574L88.5469 417.895L100.7 384.472ZM76.438 446.656C77.8563 445.71 78.9356 444.336 79.5189 442.734L83.054 433.01L103.94 438.231L91.9469 462.216L66.0469 453.583L76.438 446.656Z" fill="#ffffff" id="id_101"></path>
</svg>